<svg width="213" height="50" viewBox="0 0 213 50" fill="none" xmlns="http://www.w3.org/2000/svg">
<path d="M11.712 37.576C9.64267 37.576 7.76533 37.16 6.08 36.328C4.416 35.4747 3.09333 34.216 2.112 32.552C1.13067 30.888 0.64 28.8507 0.64 26.44C0.64 24.6053 0.938667 22.9947 1.536 21.608C2.13333 20.2213 2.944 19.0587 3.968 18.12C5.01333 17.1813 6.208 16.4773 7.552 16.008C8.91733 15.5387 10.3573 15.304 11.872 15.304C13.088 15.304 14.208 15.4427 15.232 15.72C16.256 15.9973 17.216 16.3813 18.112 16.872L18.24 20.808H17.92L16.32 18.248C16.1067 17.8427 15.872 17.48 15.616 17.16C15.36 16.8187 15.04 16.5627 14.656 16.392C14.336 16.2427 14.016 16.136 13.696 16.072C13.3973 15.9867 13.0133 15.944 12.544 15.944C11.3067 15.944 10.176 16.2747 9.152 16.936C8.14933 17.5973 7.33867 18.696 6.72 20.232C6.12267 21.7467 5.824 23.8267 5.824 26.472C5.824 29.096 6.112 31.176 6.688 32.712C7.264 34.2267 8.04267 35.3147 9.024 35.976C10.0267 36.616 11.1467 36.936 12.384 36.936C13.0667 36.936 13.6107 36.8933 14.016 36.808C14.4213 36.7013 14.8267 36.552 15.232 36.36C15.6373 36.1893 15.9467 35.944 16.16 35.624C16.3733 35.2827 16.5653 34.92 16.736 34.536L18.144 31.4H18.464L18.368 35.976C17.472 36.4453 16.4693 36.8293 15.36 37.128C14.2507 37.4267 13.0347 37.576 11.712 37.576ZM20.0173 37V36.68L20.4013 36.552C21.1693 36.296 21.5533 35.7627 21.5533 34.952V17.832C21.5533 17.4053 21.4679 17.0853 21.2973 16.872C21.1266 16.6373 20.8279 16.4667 20.4013 16.36L19.9853 16.264V15.944L25.8413 14.568L26.2253 14.856L26.0973 19.336V30.28C26.0973 31.0693 26.0973 31.8587 26.0973 32.648C26.1186 33.416 26.1293 34.184 26.1293 34.952C26.1293 35.3787 26.2146 35.7307 26.3853 36.008C26.5559 36.264 26.8439 36.456 27.2493 36.584L27.6653 36.68V37H20.0173ZM33.437 37.48C32.1997 37.48 31.1543 37.128 30.301 36.424C29.469 35.72 29.053 34.7067 29.053 33.384C29.053 32.3813 29.565 31.464 30.589 30.632C31.613 29.7787 33.2237 29.1387 35.421 28.712C35.7623 28.648 36.1463 28.584 36.573 28.52C36.9997 28.4347 37.4477 28.3493 37.917 28.264V25.736C37.917 24.2853 37.7357 23.272 37.373 22.696C37.0317 22.0987 36.4877 21.8 35.741 21.8C35.229 21.8 34.8237 21.9707 34.525 22.312C34.2263 22.632 34.0343 23.1973 33.949 24.008L33.885 24.36C33.8423 25.2773 33.6183 25.9493 33.213 26.376C32.8077 26.8027 32.3063 27.016 31.709 27.016C31.1543 27.016 30.6957 26.8453 30.333 26.504C29.9703 26.1627 29.789 25.704 29.789 25.128C29.789 24.2533 30.0877 23.5173 30.685 22.92C31.3037 22.3227 32.1143 21.8747 33.117 21.576C34.1197 21.2773 35.2077 21.128 36.381 21.128C38.2797 21.128 39.741 21.5973 40.765 22.536C41.8103 23.4533 42.333 24.9573 42.333 27.048V34.12C42.333 35.08 42.781 35.56 43.677 35.56H44.381L44.669 35.816C44.2637 36.328 43.8157 36.7227 43.325 37C42.8557 37.2773 42.1837 37.416 41.309 37.416C40.3703 37.416 39.6237 37.2027 39.069 36.776C38.5357 36.328 38.1837 35.7413 38.013 35.016C37.373 35.6987 36.7117 36.2853 36.029 36.776C35.3677 37.2453 34.5037 37.48 33.437 37.48ZM35.389 35.528C35.8157 35.528 36.2103 35.432 36.573 35.24C36.957 35.0267 37.405 34.7067 37.917 34.28V28.904C37.7037 28.9467 37.4903 28.9893 37.277 29.032C37.0637 29.0747 36.8183 29.1173 36.541 29.16C35.5597 29.416 34.7703 29.8533 34.173 30.472C33.597 31.0693 33.309 31.88 33.309 32.904C33.309 33.7787 33.5117 34.44 33.917 34.888C34.3223 35.3147 34.813 35.528 35.389 35.528ZM50.8635 37.48C49.8182 37.48 48.8795 37.352 48.0475 37.096C47.2155 36.8613 46.4475 36.5627 45.7435 36.2L45.7755 32.392H46.0955L47.1835 34.312C47.6528 35.1653 48.1648 35.8053 48.7195 36.232C49.2955 36.6373 50.0208 36.84 50.8955 36.84C51.9195 36.84 52.7408 36.616 53.3595 36.168C53.9995 35.6987 54.3195 35.08 54.3195 34.312C54.3195 33.608 54.0955 33.032 53.6475 32.584C53.1995 32.136 52.3675 31.7307 51.1515 31.368L49.8075 30.952C48.5062 30.568 47.4822 29.9707 46.7355 29.16C45.9888 28.3493 45.6155 27.3573 45.6155 26.184C45.6155 24.776 46.1702 23.5813 47.2795 22.6C48.3888 21.6187 49.9782 21.128 52.0475 21.128C52.8795 21.128 53.6582 21.224 54.3835 21.416C55.1302 21.5867 55.8448 21.8533 56.5275 22.216L56.3355 25.672H56.0155L54.8955 23.688C54.4902 22.984 54.0848 22.4933 53.6795 22.216C53.2955 21.9173 52.7088 21.768 51.9195 21.768C51.1942 21.768 50.5115 21.9707 49.8715 22.376C49.2315 22.7813 48.9115 23.3573 48.9115 24.104C48.9115 24.8293 49.1782 25.4053 49.7115 25.832C50.2662 26.2587 51.0768 26.6533 52.1435 27.016L53.5835 27.432C55.1195 27.9013 56.2182 28.552 56.8795 29.384C57.5408 30.1947 57.8715 31.176 57.8715 32.328C57.8715 33.8853 57.2528 35.1333 56.0155 36.072C54.7995 37.0107 53.0822 37.48 50.8635 37.48ZM64.801 37.48C63.7557 37.48 62.817 37.352 61.985 37.096C61.153 36.8613 60.385 36.5627 59.681 36.2L59.713 32.392H60.033L61.121 34.312C61.5903 35.1653 62.1023 35.8053 62.657 36.232C63.233 36.6373 63.9583 36.84 64.833 36.84C65.857 36.84 66.6783 36.616 67.297 36.168C67.937 35.6987 68.257 35.08 68.257 34.312C68.257 33.608 68.033 33.032 67.585 32.584C67.137 32.136 66.305 31.7307 65.089 31.368L63.745 30.952C62.4437 30.568 61.4197 29.9707 60.673 29.16C59.9263 28.3493 59.553 27.3573 59.553 26.184C59.553 24.776 60.1077 23.5813 61.217 22.6C62.3263 21.6187 63.9157 21.128 65.985 21.128C66.817 21.128 67.5957 21.224 68.321 21.416C69.0677 21.5867 69.7823 21.8533 70.465 22.216L70.273 25.672H69.953L68.833 23.688C68.4277 22.984 68.0223 22.4933 67.617 22.216C67.233 21.9173 66.6463 21.768 65.857 21.768C65.1317 21.768 64.449 21.9707 63.809 22.376C63.169 22.7813 62.849 23.3573 62.849 24.104C62.849 24.8293 63.1157 25.4053 63.649 25.832C64.2037 26.2587 65.0143 26.6533 66.081 27.016L67.521 27.432C69.057 27.9013 70.1557 28.552 70.817 29.384C71.4783 30.1947 71.809 31.176 71.809 32.328C71.809 33.8853 71.1903 35.1333 69.953 36.072C68.737 37.0107 67.0197 37.48 64.801 37.48ZM76.9488 19.464C76.2234 19.464 75.6048 19.24 75.0928 18.792C74.6021 18.3227 74.3568 17.736 74.3568 17.032C74.3568 16.3067 74.6021 15.72 75.0928 15.272C75.6048 14.824 76.2234 14.6 76.9488 14.6C77.6741 14.6 78.2821 14.824 78.7728 15.272C79.2634 15.72 79.5088 16.3067 79.5088 17.032C79.5088 17.736 79.2634 18.3227 78.7728 18.792C78.2821 19.24 77.6741 19.464 76.9488 19.464ZM73.1728 37V36.68L73.6208 36.552C74.0474 36.424 74.3354 36.232 74.4848 35.976C74.6554 35.72 74.7408 35.3787 74.7408 34.952V24.936C74.7408 24.488 74.6554 24.1573 74.4848 23.944C74.3354 23.7093 74.0474 23.5493 73.6208 23.464L73.1728 23.368V23.048L79.0288 21.16L79.3488 21.48L79.2528 26.024V34.984C79.2528 35.4107 79.3274 35.752 79.4768 36.008C79.6474 36.264 79.9354 36.456 80.3408 36.584L80.6608 36.68V37H73.1728ZM90.0135 37.48C88.5628 37.48 87.2402 37.1707 86.0455 36.552C84.8722 35.912 83.9335 34.9947 83.2295 33.8C82.5468 32.584 82.2055 31.1013 82.2055 29.352C82.2055 27.624 82.5788 26.152 83.3255 24.936C84.0935 23.6987 85.1068 22.76 86.3655 22.12C87.6455 21.4587 89.0428 21.128 90.5575 21.128C91.7948 21.128 92.8402 21.3307 93.6935 21.736C94.5468 22.1413 95.1975 22.6747 95.6455 23.336C96.0935 23.976 96.3175 24.648 96.3175 25.352C96.3175 25.9493 96.1362 26.4187 95.7735 26.76C95.4108 27.08 94.9415 27.24 94.3655 27.24C93.7468 27.24 93.2455 27.016 92.8615 26.568C92.4775 26.12 92.2535 25.5333 92.1895 24.808C92.1682 24.3387 92.1788 23.944 92.2215 23.624C92.2642 23.2827 92.2642 22.9413 92.2215 22.6C92.1362 22.2373 91.9975 22.0027 91.8055 21.896C91.6348 21.768 91.3895 21.704 91.0695 21.704C89.7682 21.704 88.7548 22.2693 88.0295 23.4C87.3255 24.5307 86.9735 26.3333 86.9735 28.808C86.9735 30.9627 87.3682 32.616 88.1575 33.768C88.9682 34.8987 90.2055 35.464 91.8695 35.464C92.8722 35.464 93.6828 35.2827 94.3015 34.92C94.9202 34.5573 95.5175 34.0133 96.0935 33.288L96.4135 33.544C95.8802 34.8027 95.0588 35.7733 93.9495 36.456C92.8402 37.1387 91.5282 37.48 90.0135 37.48ZM102.375 37.48C101.137 37.48 100.092 37.128 99.2385 36.424C98.4065 35.72 97.9905 34.7067 97.9905 33.384C97.9905 32.3813 98.5025 31.464 99.5265 30.632C100.551 29.7787 102.161 29.1387 104.359 28.712C104.7 28.648 105.084 28.584 105.51 28.52C105.937 28.4347 106.385 28.3493 106.855 28.264V25.736C106.855 24.2853 106.673 23.272 106.311 22.696C105.969 22.0987 105.425 21.8 104.679 21.8C104.167 21.8 103.761 21.9707 103.463 22.312C103.164 22.632 102.972 23.1973 102.887 24.008L102.823 24.36C102.78 25.2773 102.556 25.9493 102.151 26.376C101.745 26.8027 101.244 27.016 100.647 27.016C100.092 27.016 99.6332 26.8453 99.2705 26.504C98.9078 26.1627 98.7265 25.704 98.7265 25.128C98.7265 24.2533 99.0252 23.5173 99.6225 22.92C100.241 22.3227 101.052 21.8747 102.055 21.576C103.057 21.2773 104.145 21.128 105.319 21.128C107.217 21.128 108.679 21.5973 109.703 22.536C110.748 23.4533 111.271 24.9573 111.271 27.048V34.12C111.271 35.08 111.719 35.56 112.615 35.56H113.319L113.607 35.816C113.201 36.328 112.753 36.7227 112.263 37C111.793 37.2773 111.121 37.416 110.247 37.416C109.308 37.416 108.561 37.2027 108.007 36.776C107.473 36.328 107.121 35.7413 106.951 35.016C106.311 35.6987 105.649 36.2853 104.967 36.776C104.305 37.2453 103.441 37.48 102.375 37.48ZM104.327 35.528C104.753 35.528 105.148 35.432 105.51 35.24C105.895 35.0267 106.343 34.7067 106.855 34.28V28.904C106.641 28.9467 106.428 28.9893 106.215 29.032C106.001 29.0747 105.756 29.1173 105.479 29.16C104.497 29.416 103.708 29.8533 103.111 30.472C102.535 31.0693 102.247 31.88 102.247 32.904C102.247 33.7787 102.449 34.44 102.855 34.888C103.26 35.3147 103.751 35.528 104.327 35.528ZM114.361 37V36.68L114.745 36.552C115.513 36.296 115.897 35.7627 115.897 34.952V17.832C115.897 17.4053 115.812 17.0853 115.641 16.872C115.47 16.6373 115.172 16.4667 114.745 16.36L114.329 16.264V15.944L120.185 14.568L120.569 14.856L120.441 19.336V30.28C120.441 31.0693 120.441 31.8587 120.441 32.648C120.462 33.416 120.473 34.184 120.473 34.952C120.473 35.3787 120.558 35.7307 120.729 36.008C120.9 36.264 121.188 36.456 121.593 36.584L122.009 36.68V37H114.361ZM128.957 37.48C127.912 37.48 126.973 37.352 126.141 37.096C125.309 36.8613 124.541 36.5627 123.837 36.2L123.869 32.392H124.189L125.277 34.312C125.747 35.1653 126.259 35.8053 126.813 36.232C127.389 36.6373 128.115 36.84 128.989 36.84C130.013 36.84 130.835 36.616 131.453 36.168C132.093 35.6987 132.413 35.08 132.413 34.312C132.413 33.608 132.189 33.032 131.741 32.584C131.293 32.136 130.461 31.7307 129.245 31.368L127.901 30.952C126.6 30.568 125.576 29.9707 124.829 29.16C124.083 28.3493 123.709 27.3573 123.709 26.184C123.709 24.776 124.264 23.5813 125.373 22.6C126.483 21.6187 128.072 21.128 130.141 21.128C130.973 21.128 131.752 21.224 132.477 21.416C133.224 21.5867 133.939 21.8533 134.621 22.216L134.429 25.672H134.109L132.989 23.688C132.584 22.984 132.179 22.4933 131.773 22.216C131.389 21.9173 130.803 21.768 130.013 21.768C129.288 21.768 128.605 21.9707 127.965 22.376C127.325 22.7813 127.005 23.3573 127.005 24.104C127.005 24.8293 127.272 25.4053 127.805 25.832C128.36 26.2587 129.171 26.6533 130.237 27.016L131.677 27.432C133.213 27.9013 134.312 28.552 134.973 29.384C135.635 30.1947 135.965 31.176 135.965 32.328C135.965 33.8853 135.347 35.1333 134.109 36.072C132.893 37.0107 131.176 37.48 128.957 37.48Z" fill="black"/>
<path d="M147.04 37C146.421 37 145.984 36.872 145.728 36.616C145.493 36.36 145.376 35.9547 145.376 35.4V16.872C145.376 16.3173 145.504 15.912 145.76 15.656C146.016 15.3787 146.443 15.24 147.04 15.24H150.144C150.763 15.24 151.2 15.3787 151.456 15.656C151.712 15.912 151.84 16.3173 151.84 16.872V32.36H160.096C160.693 32.36 161.099 32.488 161.312 32.744C161.525 32.9787 161.632 33.384 161.632 33.96V35.432C161.632 35.9867 161.525 36.392 161.312 36.648C161.099 36.8827 160.693 37 160.096 37H147.04ZM164.759 37C164.14 37 163.703 36.872 163.447 36.616C163.212 36.36 163.095 35.9547 163.095 35.4V16.872C163.095 16.3173 163.223 15.912 163.479 15.656C163.735 15.3787 164.161 15.24 164.759 15.24H167.863C168.481 15.24 168.919 15.3787 169.175 15.656C169.431 15.912 169.559 16.3173 169.559 16.872V35.4C169.559 35.9547 169.431 36.36 169.175 36.616C168.919 36.872 168.481 37 167.863 37H164.759ZM181.146 37C180.74 37 180.431 36.9253 180.218 36.776C180.026 36.6267 179.844 36.3493 179.674 35.944L171.802 16.456C171.716 16.264 171.674 16.0613 171.674 15.848C171.674 15.4427 171.887 15.24 172.314 15.24H177.242C177.839 15.24 178.223 15.5067 178.394 16.04L182.586 28.136L186.778 16.04C186.948 15.5067 187.343 15.24 187.962 15.24H192.89C193.316 15.24 193.53 15.4427 193.53 15.848C193.53 16.0613 193.487 16.264 193.402 16.456L185.562 35.944C185.391 36.3493 185.199 36.6267 184.986 36.776C184.772 36.9253 184.463 37 184.058 37H181.146ZM197.29 37C196.671 37 196.234 36.872 195.978 36.616C195.743 36.36 195.626 35.9547 195.626 35.4V16.872C195.626 16.3173 195.754 15.912 196.01 15.656C196.266 15.3787 196.693 15.24 197.29 15.24H210.57C211.167 15.24 211.573 15.368 211.786 15.624C211.999 15.8587 212.106 16.264 212.106 16.84V18.312C212.106 18.888 211.999 19.304 211.786 19.56C211.573 19.7947 211.167 19.912 210.57 19.912H202.09V23.816H207.69C208.287 23.816 208.693 23.944 208.906 24.2C209.141 24.4347 209.258 24.84 209.258 25.416V26.824C209.258 27.4 209.141 27.816 208.906 28.072C208.693 28.3067 208.287 28.424 207.69 28.424H202.09V32.36H210.538C211.135 32.36 211.541 32.488 211.754 32.744C211.967 32.9787 212.074 33.384 212.074 33.96V35.432C212.074 35.9867 211.967 36.392 211.754 36.648C211.541 36.8827 211.135 37 210.538 37H197.29Z" fill="#DC2626"/>
<circle cx="140.5" cy="12.5" r="2.5" fill="#DC2626"/>
</svg>
